PathFileType	4	(X/Y/Z)	C:/Users/opensim2020/Desktop/walking_exp_matlab/subject02_walking15_straight_03.trc																																																																																																																												
DataRate	CameraRate	NumFrames	NumMarkers	Units	OrigDataRate	OrigDataStartFrame	OrigNumFrames																																																																																																																								
100	100	5	42	mm	100	1355	103																																																																																																																								
Frame#	Time	LFHD			RFHD			LBHD			RBHD			C7			T10			CLAV			STRN			RBAK			LSHO			LUPA			LELB			LFRM			LWRA			LWRB			LFIN			RSHO			RUPA			RELB			RFRM			RWRA			RWRB			RFIN			LASI			RASI			LPSI			RPSI			LTHI			LKNE			LTIB			LANK			LHEE			LTOE			RTHI			RKNE			RTIB			RANK			RHEE			RTOE			*39			*40			*41		
		X1	Y1	Z1	X2	Y2	Z2	X3	Y3	Z3	X4	Y4	Z4	X5	Y5	Z5	X6	Y6	Z6	X7	Y7	Z7	X8	Y8	Z8	X9	Y9	Z9	X10	Y10	Z10	X11	Y11	Z11	X12	Y12	Z12	X13	Y13	Z13	X14	Y14	Z14	X15	Y15	Z15	X16	Y16	Z16	X17	Y17	Z17	X18	Y18	Z18	X19	Y19	Z19	X20	Y20	Z20	X21	Y21	Z21	X22	Y22	Z22	X23	Y23	Z23	X24	Y24	Z24	X25	Y25	Z25	X26	Y26	Z26	X27	Y27	Z27	X28	Y28	Z28	X29	Y29	Z29	X30	Y30	Z30	X31	Y31	Z31	X32	Y32	Z32	X33	Y33	Z33	X34	Y34	Z34	X35	Y35	Z35	X36	Y36	Z36	X37	Y37	Z37	X38	Y38	Z38	X39	Y39	Z39	X40	Y40	Z40	X41	Y41	Z41	X42	Y42	Z42
																																																																																																																															
78	0.77	312.97794	1687.06055	1375.46838	326.33398	1680.75415	1519.14075	178.14517	1620.77271	1386.7981	178.72238	1613.69604	1530.07544	127.66019	1478.45825	1466.39441	89.82123	1201.48218	1496.5271	267.53537	1415.92798	1452.84607	330.202	1248.47961	1465.42065	79.99319	1301.95508	1539.5321	188.96989	1446.2998	1285.33545	212.4554	1251.71582	1201.7135	255.83443	1113.32813	1182.59167	361.91501	1031.56104	1202.41418	479.83878	1007.67273	1268.58923	461.81	966.94287	1234.36328	525.51898	951.69763	1249.06311	206.09824	1455.62463	1650.38501	137.1046	1288.84741	1746.50598	116.35912	1153.1803	1787.75842	103.44452	1043.12756	1834.83496	107.471	906.09711	1848.37231	59.82627	925.99042	1872.59998	68.77552	854.53253	1890.14905	288.29504	925.71765	1353.77625	351.45251	952.94055	1593.62866	106.99469	984.45978	1474.00098	128.96877	1001.92969	1589.07898	134.3378	634.83881	1336.52185	60.74791	457.94275	1371.67297	-97.5713	354.90051	1403.07153	-234.7617	181.31505	1447.68848	-259.79532	189.64304	1507.73682	-176.44167	35.55044	1435.65637	374.49042	667.75421	1694.20007	444.74518	474.91888	1642.69421	440.08444	288.10135	1663.57019	431.6442	92.97122	1638.03601	385.95807	39.2351	1594.44006	583.68353	41.01616	1618.17407	225.07573	1766.36938	1468.46973	2846.10889	1034.51147	-3357.03564	NaN	NaN	NaN
79	0.78	326.97348	1688.89917	1374.58569	341.09268	1682.82739	1517.87256	192.17145	1622.66711	1386.44263	193.34982	1615.5929	1529.41382	141.64691	1480.64185	1466.46191	104.89864	1203.2948	1496.95581	282.22168	1418.01941	1452.14185	345.49426	1250.98157	1464.83716	95.49166	1303.67749	1540.02319	202.45914	1448.00928	1285.19385	223.60649	1252.76245	1202.00452	266.67786	1114.21143	1183.65369	372.26587	1031.32581	1202.51196	490.96927	1006.92206	1266.4176	472.17587	966.16803	1232.57202	536.01825	950.50635	1245.90369	221.75882	1458.05774	1649.95886	156.37247	1290.22144	1747.7384	137.83713	1154.13647	1788.22339	126.07172	1043.96997	1835.19092	130.60341	907.18622	1849.09741	83.69089	927.23657	1874.51831	92.93481	855.84412	1891.67957	304.51334	926.74805	1356.07751	368.11423	954.78052	1594.68652	122.93808	986.65118	1473.84033	145.46849	1005.1485	1589.48694	156.75587	631.84961	1336.23193	89.55941	454.32874	1367.83911	-69.44899	355.32538	1397.73889	-213.09764	190.00021	1445.87451	-237.79813	200.09708	1506.45349	-163.17036	42.08244	1433.03589	391.64944	669.45813	1691.63989	455.99149	474.24545	1640.91321	443.58627	287.48566	1662.55408	431.94772	93.15199	1637.36401	386.10254	39.39745	1594.20618	584.32532	40.58973	1616.41614	239.42892	1768.25488	1467.59912	2846.04126	1034.2843	-3356.84424	NaN	NaN	NaN
80	0.79	340.9241	1691.40442	1373.33154	355.776	1685.3042	1516.56165	206.12688	1624.80884	1385.7113	208.13205	1617.84961	1528.81824	156.76736	1482.32349	1466.11572	120.03033	1205.56335	1497.62927	296.80728	1420.39233	1451.11719	360.47134	1253.6748	1463.90442	111.10051	1306.05664	1540.75208	215.84158	1449.94788	1285.02612	234.93402	1253.97095	1202.45667	276.94016	1115.13794	1184.39319	381.79477	1031.1073	1201.677	501.35883	1005.58203	1263.96692	480.88687	964.39825	1231.02258	545.16528	948.62585	1242.44031	237.29823	1460.88916	1649.19275	175.5441	1291.90149	1748.32349	159.85599	1155.57764	1788.79614	149.64969	1045.52454	1835.71399	154.80881	908.57538	1849.49683	108.01279	928.35284	1875.57153	117.91463	856.92328	1892.94373	320.4082	928.27728	1358.33752	384.0741	956.97992	1595.73413	138.27264	988.88361	1473.92175	161.3723	1007.81622	1589.5437	180.05544	628.24567	1335.73511	119.25744	450.94571	1363.69666	-40.65558	355.47308	1391.63196	-190.64738	198.8642	1445.75354	-214.58144	209.18649	1506.06104	-144.34306	48.99495	1429.13196	408.39676	671.63513	1689.22058	464.3981	473.29041	1640.06396	445.73514	286.61752	1661.30835	432.42462	92.99619	1637.01575	385.99716	39.46374	1594.10193	584.4032	40.61598	1616.84534	253.61969	1770.51721	1466.81824	2845.44678	1034.27112	-3360.55518	NaN	NaN	NaN
81	0.8	354.78323	1694.29175	1371.94153	370.36078	1688.15381	1515.07666	220.3015	1627.55615	1385.16895	222.90714	1620.47803	1528.03479	170.07176	1484.70081	1465.92224	135.16298	1208.28308	1498.67029	311.23489	1423.1189	1449.94006	375.03619	1256.46448	1462.49231	126.19388	1308.46582	1540.79956	228.94928	1452.12622	1284.51892	246.64795	1255.37085	1203.11633	286.53564	1116.16699	1184.92102	390.8056	1031.00525	1201.13147	510.86496	1003.48938	1261.04883	488.97989	962.51526	1229.08667	553.19623	945.60693	1238.61584	252.88019	1464.0824	1648.25427	195.28645	1294.24487	1748.91528	181.98476	1157.27637	1788.92969	173.57292	1047.20642	1835.7937	179.82974	910.17859	1849.27136	133.53783	929.78857	1876.42786	144.16399	858.48846	1893.58179	335.63275	929.80432	1359.60852	399.43134	959.565	1596.52759	153.07347	991.29675	1474.27527	176.69252	1010.203	1589.52271	204.21416	625.67914	1334.6637	149.57126	448.26547	1359.51855	-11.29583	355.91412	1386.58997	-165.48047	206.8916	1445.69482	-189.13496	216.98416	1506.47302	-121.12207	55.97354	1425.90027	424.06076	673.72223	1687.6051	470.37967	472.15869	1640.09998	447.45706	285.69205	1660.31445	432.53186	92.72344	1636.54077	385.75024	39.37691	1593.63538	584.36993	40.54855	1616.02966	267.84567	1773.26599	1466.08594	2846.01074	1034.32104	-3357.01953	NaN	NaN	NaN
82	0.81	368.5376	1697.49695	1370.22632	384.91577	1691.18945	1513.49634	234.29576	1630.64929	1384.20618	237.5813	1623.38782	1527.09485	184.41289	1487.38428	1465.54224	150.15977	1211.40918	1499.7511	325.44946	1426.21753	1448.48083	389.37064	1259.45398	1460.83252	141.36188	1311.72974	1541.43152	241.7368	1454.61084	1283.72217	257.0799	1257.00928	1203.19495	295.93704	1117.46313	1185.66821	398.85046	1030.53735	1200.35315	519.52924	1000.94519	1258.22925	495.95239	960.35284	1227.16614	559.39026	942.1759	1234.87122	268.57599	1467.62537	1647.22876	214.97771	1296.66602	1748.70325	204.30754	1159.39771	1788.81677	197.80904	1049.0531	1835.38623	205.8224	912.24323	1848.61902	159.91579	931.37335	1876.76465	171.53868	860.25806	1893.82458	350.04782	931.68109	1360.38501	414.21545	962.3089	1596.94324	167.41721	993.9696	1474.62842	191.34383	1012.5976	1589.50061	228.40485	624.97021	1333.00415	179.88811	446.61728	1356.05078	18.28175	358.02576	1383.97131	-138.16644	213.63892	1445.33594	-162.12573	222.84398	1506.6488	-95.06646	63.88224	1423.33838	438.46933	676.15698	1685.74561	475.42365	471.43015	1640.55212	449.69412	285.15118	1660.02185	432.52963	92.45882	1636.17871	385.61496	39.35838	1593.60962	584.24945	40.69707	1615.87	282.07544	1776.2229	1465.03662	2846.00537	1034.32629	-3356.9563	NaN	NaN	NaN
